<?xml version="1.0" standalone="no"?>
<!DOCTYPE svg PUBLIC "-//W3C//DTD SVG 20010904//EN"
 "http://www.w3.org/TR/2001/REC-SVG-20010904/DTD/svg10.dtd">
<svg version="1.0" xmlns="http://www.w3.org/2000/svg"
 width="64.000000pt" height="64.000000pt" viewBox="0 0 64.000000 64.000000"
 preserveAspectRatio="xMidYMid meet">

<g transform="translate(0.000000,64.000000) scale(0.100000,-0.100000)"
fill="#000000" stroke="none">
<path d="M223 621 c-108 -37 -178 -110 -210 -220 -41 -143 35 -303 177 -370
78 -36 182 -36 260 0 213 100 252 385 72 534 -49 41 -51 23 -2 -21 47 -43 86
-113 96 -173 l7 -41 -102 0 c-85 0 -101 2 -101 16 0 8 -13 29 -29 45 -41 41
-101 41 -142 0 -16 -16 -29 -37 -29 -45 0 -14 -16 -16 -101 -16 l-102 0 7 41
c14 90 76 173 161 216 65 34 173 43 229 19 45 -19 46 -19 46 -6 0 13 -96 40
-144 40 -23 -1 -64 -9 -93 -19z m154 -243 c51 -47 15 -138 -54 -138 -18 0 -33
-4 -33 -10 0 -5 16 -10 36 -10 26 0 43 8 65 29 16 16 29 37 29 45 0 14 16 16
100 16 98 0 100 0 100 -23 0 -92 -100 -219 -199 -252 -175 -58 -369 56 -397
234 l-7 41 102 0 c79 0 101 -3 101 -14 0 -19 37 -63 46 -54 4 5 0 16 -9 26
-24 26 -22 81 5 109 28 30 83 31 115 1z"/>
</g>
</svg>
